<?xml version="1.0" encoding="UTF-8" standalone="no"?><!DOCTYPE svg PUBLIC "-//W3C//DTD SVG 1.1//EN" "http://www.w3.org/Graphics/SVG/1.1/DTD/svg11.dtd"><svg width="100%" height="100%" viewBox="0 0 375 375" version="1.1" xmlns="http://www.w3.org/2000/svg" xmlns:xlink="http://www.w3.org/1999/xlink" xml:space="preserve" xmlns:serif="http://www.serif.com/" style="fill-rule:evenodd;clip-rule:evenodd;stroke-linejoin:round;stroke-miterlimit:2;"><g id="XMLID_36_"><g id="XMLID_115_"><g id="XMLID_206_"><g id="XMLID_220_"><g id="XMLID_231_"><path id="XMLID_232_" d="M290.121,157.236c-0,3.478 -2.783,5.913 -5.914,5.913l-108.882,0c-3.479,0 -5.914,-2.783 -5.914,-5.913l-0,-12.176c-0,-3.478 2.783,-5.913 5.914,-5.913l108.882,-0c3.479,-0 5.914,2.782 5.914,5.913l-0,12.176Z" style="fill:#ee5644;fill-rule:nonzero;"/></g><g id="XMLID_229_"><path id="XMLID_230_" d="M338.822,193.414c-0,3.478 -2.783,5.913 -5.914,5.913l-133.233,0c-3.478,0 -5.913,-2.782 -5.913,-5.913l-0,-12.176c-0,-3.478 2.783,-5.913 5.913,-5.913l132.885,-0c3.479,-0 5.914,2.783 5.914,5.913l0,12.176l0.348,-0Z" style="fill:#ee5644;fill-rule:nonzero;"/></g><g id="XMLID_227_"><path id="XMLID_228_" d="M375,229.94c0,3.478 -2.783,5.913 -5.914,5.913l-145.408,0c-3.479,0 -5.914,-2.782 -5.914,-5.913l0,-12.176c0,-3.478 2.783,-5.913 5.914,-5.913l145.06,-0c3.479,-0 5.914,2.783 5.914,5.913l0,12.176l0.348,-0Z" style="fill:#ee5644;fill-rule:nonzero;"/></g><g id="XMLID_225_"><path id="XMLID_226_" d="M375,266.118c0,3.478 -2.783,5.914 -5.914,5.914l-145.408,-0c-3.479,-0 -5.914,-2.783 -5.914,-5.914l0,-12.176c0,-3.478 2.783,-5.913 5.914,-5.913l145.06,-0c3.479,-0 5.914,2.783 5.914,5.913l0,12.176l0.348,-0Z" style="fill:#ee5644;fill-rule:nonzero;"/></g><g id="XMLID_223_"><path id="XMLID_224_" d="M338.822,302.296c-0,3.479 -2.783,5.914 -5.914,5.914l-133.233,-0c-3.478,-0 -5.913,-2.783 -5.913,-5.914l-0,-12.175c-0,-3.479 2.783,-5.914 5.913,-5.914l132.885,-0c3.479,-0 5.914,2.783 5.914,5.914l0,12.175l0.348,-0Z" style="fill:#ee5644;fill-rule:nonzero;"/></g><g id="XMLID_221_"><path id="XMLID_222_" d="M290.121,338.822c-0,3.479 -2.783,5.914 -5.914,5.914l-108.882,-0c-3.479,-0 -5.914,-2.783 -5.914,-5.914l-0,-12.175c-0,-3.479 2.783,-5.914 5.914,-5.914l108.882,-0c3.479,-0 5.914,2.783 5.914,5.914l-0,12.175Z" style="fill:#ee5644;fill-rule:nonzero;"/></g></g><g id="XMLID_207_"><g id="XMLID_218_"><path id="XMLID_219_" d="M84.532,48.353c-0,3.479 2.782,5.914 5.913,5.914l108.882,0c3.479,0 5.914,-2.783 5.914,-5.914l0,-12.175c0,-3.479 -2.783,-5.914 -5.914,-5.914l-108.534,0c-3.479,0 -5.914,2.783 -5.914,5.914l0,12.175l-0.347,0Z" style="fill:#ee5644;fill-rule:nonzero;"/></g><g id="XMLID_216_"><path id="XMLID_217_" d="M36.178,84.532c0,3.478 2.783,5.913 5.914,5.913l132.885,0c3.478,0 5.914,-2.783 5.914,-5.913l-0,-12.176c-0,-3.478 -2.783,-5.914 -5.914,-5.914l-132.537,0c-3.479,0 -5.914,2.783 -5.914,5.914l-0,12.176l-0.348,-0Z" style="fill:#ee5644;fill-rule:nonzero;"/></g><g id="XMLID_214_"><path id="XMLID_215_" d="M0,121.058c0,3.478 2.783,5.913 5.914,5.913l145.06,0c3.479,0 5.914,-2.783 5.914,-5.913l-0,-12.176c-0,-3.478 -2.783,-5.914 -5.914,-5.914l-145.06,0c-3.479,0 -5.914,2.783 -5.914,5.914l0,12.176Z" style="fill:#ee5644;fill-rule:nonzero;"/></g><g id="XMLID_212_"><path id="XMLID_213_" d="M0,157.236c0,3.478 2.783,5.913 5.914,5.913l145.06,0c3.479,0 5.914,-2.783 5.914,-5.913l-0,-12.176c-0,-3.478 -2.783,-5.913 -5.914,-5.913l-145.06,-0c-3.479,-0 -5.914,2.782 -5.914,5.913l0,12.176Z" style="fill:#ee5644;fill-rule:nonzero;"/></g><g id="XMLID_210_"><path id="XMLID_211_" d="M36.178,193.414c0,3.478 2.783,5.913 5.914,5.913l132.885,0c3.478,0 5.914,-2.782 5.914,-5.913l-0,-12.176c-0,-3.478 -2.783,-5.913 -5.914,-5.913l-132.537,-0c-3.479,-0 -5.914,2.783 -5.914,5.913l-0,12.176l-0.348,-0Z" style="fill:#ee5644;fill-rule:nonzero;"/></g><g id="XMLID_208_"><path id="XMLID_209_" d="M84.532,229.94c-0,3.478 2.782,5.913 5.913,5.913l108.882,0c3.479,0 5.914,-2.782 5.914,-5.913l0,-12.176c0,-3.478 -2.783,-5.913 -5.914,-5.913l-108.534,-0c-3.479,-0 -5.914,2.783 -5.914,5.913l0,12.176l-0.347,-0Z" style="fill:#ee5644;fill-rule:nonzero;"/></g></g></g></g></g></svg>