<?xml version="1.0" encoding="UTF-8" standalone="no"?><!DOCTYPE svg PUBLIC "-//W3C//DTD SVG 1.1//EN" "http://www.w3.org/Graphics/SVG/1.1/DTD/svg11.dtd"><svg width="100%" height="100%" viewBox="0 0 125 125" version="1.1" xmlns="http://www.w3.org/2000/svg" xmlns:xlink="http://www.w3.org/1999/xlink" xml:space="preserve" xmlns:serif="http://www.serif.com/" style="fill-rule:evenodd;clip-rule:evenodd;stroke-linejoin:round;stroke-miterlimit:2;"><g><path d="M78.043,14.505c-0.861,0 -1.729,0.059 -2.604,0.184l-59.324,8.403c-10.225,1.451 -17.36,11.041 -15.933,21.429l5.288,38.499c1.305,9.496 9.315,16.368 18.492,16.368c0.861,-0 1.733,-0.059 2.608,-0.184l59.317,-8.403c10.225,-1.451 17.36,-11.045 15.937,-21.433l-5.292,-38.495c-1.298,-9.496 -9.308,-16.368 -18.489,-16.368Zm0,8.517c5.104,0 9.479,3.882 10.188,9.028l5.288,38.498c0.784,5.715 -3.16,11.017 -8.785,11.816l-59.321,8.402c-0.479,0.07 -0.968,0.104 -1.447,0.104c-5.101,0 -9.479,-3.881 -10.184,-9.027l-5.292,-38.499c-0.385,-2.744 0.329,-5.532 1.986,-7.753c1.628,-2.214 4.084,-3.68 6.806,-4.062l59.314,-8.403c0.479,-0.069 0.965,-0.104 1.447,-0.104Z" style="fill:#252525;"/></g><path d="M95.487,110.495c-16.19,-0 -29.513,-13.323 -29.513,-29.513c0,-16.19 13.323,-29.513 29.513,-29.513c16.19,0 29.513,13.323 29.513,29.513c0,16.19 -13.323,29.513 -29.513,29.513Z" style="fill:#006aff;"/><path d="M88.578,92.968l18.496,-10.996c0.351,-0.206 0.568,-0.583 0.568,-0.99c-0,-0.407 -0.217,-0.784 -0.568,-0.99l-18.496,-10.996c-0.182,-0.108 -0.389,-0.166 -0.601,-0.166c-0.636,0 -1.162,0.519 -1.17,1.156l-0,21.989c-0,0.902 0.993,1.458 1.771,0.993Z" style="fill:#fff;"/></svg>